<svg width="104" height="119" viewBox="0 0 104 119" fill="none" xmlns="http://www.w3.org/2000/svg">
<path d="M13.6457 110.166C13.1083 110.166 12.6923 110.028 12.3977 109.75C12.1203 109.456 11.9817 109.04 11.9817 108.502V98.6743C11.9817 98.137 12.1203 97.7297 12.3977 97.4523C12.675 97.175 13.065 97.0363 13.5677 97.0363C14.0703 97.0363 14.4603 97.175 14.7377 97.4523C15.015 97.7297 15.1537 98.137 15.1537 98.6743V100.312H14.8937C15.1363 99.2723 15.613 98.4837 16.3237 97.9463C17.0343 97.409 17.979 97.0883 19.1577 96.9843C19.5217 96.9497 19.8077 97.045 20.0157 97.2703C20.241 97.4783 20.371 97.8077 20.4057 98.2583C20.4403 98.6917 20.3363 99.047 20.0937 99.3243C19.8683 99.5843 19.5217 99.7403 19.0537 99.7923L18.4817 99.8443C17.4243 99.9483 16.627 100.278 16.0897 100.832C15.5523 101.37 15.2837 102.132 15.2837 103.12V108.502C15.2837 109.04 15.145 109.456 14.8677 109.75C14.5903 110.028 14.183 110.166 13.6457 110.166ZM28.2262 110.218C26.7875 110.218 25.5482 109.95 24.5082 109.412C23.4682 108.875 22.6622 108.112 22.0902 107.124C21.5355 106.136 21.2582 104.966 21.2582 103.614C21.2582 102.297 21.5269 101.144 22.0642 100.156C22.6189 99.1683 23.3729 98.397 24.3262 97.8423C25.2969 97.2703 26.3975 96.9843 27.6282 96.9843C28.5295 96.9843 29.3355 97.1317 30.0462 97.4263C30.7742 97.721 31.3895 98.1457 31.8922 98.7003C32.4122 99.255 32.8022 99.931 33.0622 100.728C33.3395 101.508 33.4782 102.392 33.4782 103.38C33.4782 103.692 33.3655 103.935 33.1402 104.108C32.9322 104.264 32.6289 104.342 32.2302 104.342H23.8842V102.47H31.1902L30.7742 102.86C30.7742 102.063 30.6529 101.396 30.4102 100.858C30.1849 100.321 29.8469 99.9137 29.3962 99.6363C28.9629 99.3417 28.4169 99.1943 27.7582 99.1943C27.0302 99.1943 26.4062 99.3677 25.8862 99.7143C25.3835 100.044 24.9935 100.52 24.7162 101.144C24.4562 101.751 24.3262 102.479 24.3262 103.328V103.51C24.3262 104.932 24.6555 105.998 25.3142 106.708C25.9902 107.402 26.9782 107.748 28.2782 107.748C28.7289 107.748 29.2315 107.696 29.7862 107.592C30.3582 107.471 30.8955 107.272 31.3982 106.994C31.7622 106.786 32.0829 106.7 32.3602 106.734C32.6375 106.752 32.8542 106.847 33.0102 107.02C33.1835 107.194 33.2875 107.41 33.3222 107.67C33.3569 107.913 33.3049 108.164 33.1662 108.424C33.0449 108.684 32.8282 108.91 32.5162 109.1C31.9095 109.482 31.2075 109.768 30.4102 109.958C29.6302 110.132 28.9022 110.218 28.2262 110.218Z" fill="#5A5A5A"/>
<path d="M38.132 109.958C37.56 109.958 37.118 109.811 36.806 109.516C36.5113 109.204 36.364 108.762 36.364 108.19V93.3963C36.364 92.8243 36.5113 92.391 36.806 92.0963C37.118 91.7843 37.56 91.6283 38.132 91.6283H44.372C45.6547 91.6283 46.7467 91.819 47.648 92.2003C48.5493 92.5817 49.234 93.1277 49.702 93.8383C50.1873 94.549 50.43 95.3983 50.43 96.3863C50.43 97.4957 50.1093 98.4317 49.468 99.1943C48.8267 99.957 47.9513 100.468 46.842 100.728V100.338C48.1247 100.529 49.1213 101.014 49.832 101.794C50.5427 102.574 50.898 103.588 50.898 104.836C50.898 106.466 50.3433 107.731 49.234 108.632C48.142 109.516 46.6167 109.958 44.658 109.958H38.132ZM39.562 107.436H44.242C45.4207 107.436 46.2873 107.211 46.842 106.76C47.3967 106.292 47.674 105.599 47.674 104.68C47.674 103.744 47.3967 103.051 46.842 102.6C46.2873 102.15 45.4207 101.924 44.242 101.924H39.562V107.436ZM39.562 99.4023H43.8C44.944 99.4023 45.7933 99.1857 46.348 98.7523C46.92 98.3017 47.206 97.643 47.206 96.7763C47.206 95.9097 46.92 95.2597 46.348 94.8263C45.7933 94.3757 44.944 94.1503 43.8 94.1503H39.562V99.4023ZM58.5544 110.218C57.497 110.218 56.6217 110.028 55.9284 109.646C55.235 109.248 54.715 108.658 54.3684 107.878C54.039 107.098 53.8744 106.128 53.8744 104.966V98.6743C53.8744 98.1197 54.013 97.7123 54.2904 97.4523C54.5677 97.175 54.9664 97.0363 55.4864 97.0363C56.0064 97.0363 56.405 97.175 56.6824 97.4523C56.977 97.7123 57.1244 98.1197 57.1244 98.6743V105.018C57.1244 105.92 57.3064 106.587 57.6704 107.02C58.0344 107.454 58.615 107.67 59.4124 107.67C60.279 107.67 60.9897 107.376 61.5444 106.786C62.099 106.18 62.3764 105.382 62.3764 104.394V98.6743C62.3764 98.1197 62.515 97.7123 62.7924 97.4523C63.0697 97.175 63.4684 97.0363 63.9884 97.0363C64.5084 97.0363 64.907 97.175 65.1844 97.4523C65.479 97.7123 65.6264 98.1197 65.6264 98.6743V108.502C65.6264 109.612 65.0977 110.166 64.0404 110.166C63.5377 110.166 63.1477 110.028 62.8704 109.75C62.593 109.456 62.4544 109.04 62.4544 108.502V106.526L62.8184 107.306C62.4544 108.242 61.8997 108.962 61.1544 109.464C60.4264 109.967 59.5597 110.218 58.5544 110.218ZM70.621 110.14C70.101 110.14 69.7023 109.984 69.425 109.672C69.1477 109.36 69.009 108.927 69.009 108.372V98.8303C69.009 98.2583 69.1477 97.825 69.425 97.5303C69.7023 97.2183 70.101 97.0623 70.621 97.0623C71.141 97.0623 71.5397 97.2183 71.817 97.5303C72.1117 97.825 72.259 98.2583 72.259 98.8303V108.372C72.259 108.927 72.1203 109.36 71.843 109.672C71.5657 109.984 71.1583 110.14 70.621 110.14ZM70.621 94.6443C70.0143 94.6443 69.5377 94.497 69.191 94.2023C68.8617 93.8903 68.697 93.4657 68.697 92.9283C68.697 92.3737 68.8617 91.949 69.191 91.6543C69.5377 91.3597 70.0143 91.2123 70.621 91.2123C71.245 91.2123 71.7217 91.3597 72.051 91.6543C72.3803 91.949 72.545 92.3737 72.545 92.9283C72.545 93.4657 72.3803 93.8903 72.051 94.2023C71.7217 94.497 71.245 94.6443 70.621 94.6443ZM79.978 110.218C78.5393 110.218 77.456 109.811 76.728 108.996C76 108.164 75.636 106.951 75.636 105.356V93.0583C75.636 92.521 75.7746 92.1137 76.052 91.8363C76.3293 91.559 76.728 91.4203 77.248 91.4203C77.768 91.4203 78.1666 91.559 78.444 91.8363C78.7386 92.1137 78.886 92.521 78.886 93.0583V105.2C78.886 105.998 79.0506 106.587 79.38 106.968C79.7266 107.35 80.212 107.54 80.836 107.54C80.9746 107.54 81.1046 107.54 81.226 107.54C81.3473 107.523 81.4686 107.506 81.59 107.488C81.8326 107.454 81.9973 107.523 82.084 107.696C82.1706 107.852 82.214 108.182 82.214 108.684C82.214 109.118 82.1273 109.456 81.954 109.698C81.7806 109.941 81.4946 110.088 81.096 110.14C80.9226 110.158 80.7406 110.175 80.55 110.192C80.3593 110.21 80.1686 110.218 79.978 110.218ZM88.6998 110.218C87.5904 110.218 86.6111 109.95 85.7617 109.412C84.9298 108.875 84.2798 108.112 83.8118 107.124C83.3437 106.119 83.1097 104.94 83.1097 103.588C83.1097 102.219 83.3437 101.049 83.8118 100.078C84.2798 99.0903 84.9298 98.3277 85.7617 97.7903C86.6111 97.253 87.5904 96.9843 88.6998 96.9843C89.7571 96.9843 90.6758 97.2443 91.4558 97.7643C92.2531 98.2843 92.7904 98.969 93.0678 99.8183H92.7818V93.0583C92.7818 92.521 92.9204 92.1137 93.1978 91.8363C93.4751 91.559 93.8738 91.4203 94.3938 91.4203C94.9138 91.4203 95.3124 91.559 95.5898 91.8363C95.8844 92.1137 96.0318 92.521 96.0318 93.0583V108.502C96.0318 109.04 95.8931 109.456 95.6158 109.75C95.3384 110.028 94.9398 110.166 94.4198 110.166C93.8998 110.166 93.5011 110.028 93.2238 109.75C92.9464 109.456 92.8078 109.04 92.8078 108.502V106.474L93.0938 107.254C92.8338 108.156 92.3051 108.875 91.5078 109.412C90.7104 109.95 89.7744 110.218 88.6998 110.218ZM89.6098 107.748C90.2511 107.748 90.8144 107.592 91.2998 107.28C91.7851 106.968 92.1578 106.509 92.4178 105.902C92.6951 105.278 92.8338 104.507 92.8338 103.588C92.8338 102.202 92.5391 101.17 91.9498 100.494C91.3604 99.801 90.5804 99.4543 89.6098 99.4543C88.9684 99.4543 88.4051 99.6103 87.9198 99.9223C87.4344 100.217 87.0531 100.676 86.7758 101.3C86.5158 101.907 86.3857 102.67 86.3857 103.588C86.3857 104.958 86.6804 105.998 87.2698 106.708C87.8591 107.402 88.6391 107.748 89.6098 107.748Z" fill="#3A3A3A"/>
<path d="M51.703 69.9452C50.8668 69.4217 50.2602 68.7063 49.8833 67.7964C47.8589 63.9625 45.8021 60.1635 43.3558 56.5415C42.4697 55.1829 41.2965 54.1559 39.8287 53.4579C36.2143 51.7005 32.6822 49.7885 29.0977 47.9663C28.5711 47.6596 27.9994 47.5076 27.3879 47.5076C26.7788 47.5076 26.2072 47.6596 25.6805 47.9663C25.4159 48.1108 25.1788 48.2928 24.9666 48.5122C24.7569 48.7291 24.5847 48.9709 24.4474 49.2401C24.3101 49.5093 24.2153 49.791 24.1603 50.0901C24.1079 50.3868 24.1004 50.6859 24.1379 50.985C24.1753 51.2991 24.2527 51.6032 24.3725 51.8974C24.4923 52.1915 24.6496 52.4633 24.8418 52.715C25.034 52.9668 25.2587 53.1912 25.5108 53.3831C25.7629 53.575 26.0375 53.7296 26.332 53.8492C29.3099 55.3374 32.3128 56.7932 35.2358 58.4061C35.5553 58.5482 35.8124 58.77 35.9996 59.0642C36.1893 59.3583 36.2842 59.6824 36.2792 60.0339C36.3092 60.3654 36.2443 60.682 36.0845 60.9761C35.9272 61.2703 35.7001 61.4996 35.4055 61.6617C35.0885 61.8187 34.7516 61.8885 34.3971 61.876C34.0426 61.8611 33.7107 61.7614 33.4086 61.5794L22.9547 56.1202C22.4006 55.8011 21.8264 55.5319 21.2323 55.305C19.3228 54.6868 18.2944 53.2535 17.3883 51.5858C15.284 47.7045 13.1049 43.913 10.9656 40.1289C10.8408 39.8747 10.6811 39.6453 10.4864 39.4434C10.2892 39.239 10.067 39.067 9.81991 38.9324C9.57029 38.7953 9.3082 38.7006 9.03112 38.6432C8.75405 38.5884 8.47198 38.5759 8.19241 38.6083C7.93781 38.6183 7.68819 38.6657 7.44856 38.7529C7.20893 38.8377 6.98677 38.9573 6.78458 39.1119C6.5799 39.2639 6.40516 39.4434 6.25539 39.6503C6.10812 39.8572 5.9933 40.0816 5.91592 40.3234C5.78112 40.7895 5.74618 41.2632 5.81357 41.7418C5.87847 42.2229 6.03823 42.6691 6.29034 43.0829C8.47698 47.8591 10.6961 52.6128 12.8677 57.3965C13.4943 58.6354 14.4079 59.6026 15.6085 60.3006C22.2034 64.5982 28.8456 68.8209 35.5853 72.8991C35.9971 73.111 36.3166 73.4201 36.5413 73.824C36.7685 74.2278 36.8633 74.6591 36.8259 75.1202C36.8259 77.977 36.9906 80.8162 37.0805 83.7054" stroke="#3A3A3A" stroke-width="3.68649" stroke-linecap="round" stroke-linejoin="round"/>
<path d="M66.3354 83.6805C66.3354 80.5545 66.5151 77.446 66.62 74.33C66.62 73.5174 67.3463 73.2481 67.878 72.9141C73.1724 69.5788 78.4867 66.3307 83.7586 62.9056C85.3886 61.8636 86.9487 60.8141 88.5238 59.7397C89.37 59.1888 90.0065 58.4559 90.4333 57.5436C92.7098 52.563 94.9464 47.5575 97.2378 42.5868C97.3751 42.34 97.475 42.0783 97.5324 41.8016C97.5898 41.5249 97.6048 41.2457 97.5773 40.964C97.5474 40.6823 97.48 40.4106 97.3701 40.1514C97.2578 39.8921 97.1105 39.6528 96.9283 39.4384C96.7561 39.239 96.5564 39.072 96.3342 38.9324C96.1096 38.7928 95.8724 38.6881 95.6178 38.6208C95.3632 38.5535 95.1036 38.5236 94.8415 38.5311C94.5769 38.541 94.3223 38.5884 94.0727 38.6732C92.9544 38.9324 92.4402 39.9096 91.9834 40.7721C89.7319 45.0123 87.2981 49.0805 84.9742 53.2635C84.6322 53.8567 84.1505 54.298 83.5289 54.5896C79.1157 56.883 74.7025 59.1689 70.2843 61.4398C69.9573 61.6517 69.5979 61.7763 69.211 61.8187C68.8216 61.8586 68.4446 61.8087 68.0802 61.6691C67.7882 61.5395 67.546 61.3426 67.3588 61.0833C67.1716 60.8216 67.0643 60.5324 67.0343 60.2133C67.0044 59.8918 67.0593 59.5877 67.1966 59.2985C67.3364 59.0068 67.5385 58.7725 67.8031 58.593C68.8266 57.9649 69.8799 57.394 70.9608 56.8755C73.1574 55.7363 75.4514 54.7691 77.5631 53.4504C77.7428 53.3457 77.9101 53.2261 78.0673 53.089C78.2221 52.9543 78.3644 52.8048 78.4917 52.6427C78.619 52.4782 78.7313 52.3062 78.8262 52.1218C78.9185 51.9373 78.9959 51.7453 79.0533 51.5484C79.1107 51.349 79.1507 51.1471 79.1706 50.9402C79.1881 50.7358 79.1881 50.5289 79.1681 50.3244C79.1482 50.1175 79.1082 49.9156 79.0508 49.7187C78.9934 49.5193 78.916 49.3298 78.8212 49.1454C78.1597 47.7619 75.9806 47.1686 74.4878 47.884C70.464 49.8209 66.5551 51.9522 62.5487 53.939C61.1134 54.637 60.3196 55.998 59.4959 57.2669C57.1945 60.8066 55.2699 64.5907 53.1881 68.2351C53.0209 68.6215 52.7912 68.963 52.4942 69.2622C52.1597 69.5713 51.9176 69.9427 51.7728 70.3765C51.628 70.8102 51.5981 71.2514 51.6779 71.7026C51.6779 75.2349 51.6779 78.7572 51.6779 82.282C51.6779 82.6634 51.7428 83.0448 51.7678 83.4212" stroke="#3A3A3A" stroke-width="3.68649" stroke-linecap="round" stroke-linejoin="round"/>
<path d="M81.4972 39.5257C81.4972 36.2227 81.6694 32.9023 81.4972 29.6069C81.4697 28.884 81.3649 28.171 81.1801 27.4706C80.9929 26.7701 80.7333 26.0995 80.3988 25.4564C80.0644 24.8132 79.665 24.215 79.1982 23.6591C78.7289 23.1057 78.2072 22.6096 77.6281 22.1709C77.0665 21.7222 76.5023 21.251 75.9083 20.7625C75.9881 20.2066 76.1778 19.6881 76.4699 19.207C76.7445 18.661 76.9267 18.0852 77.0116 17.4795C77.0989 16.8762 77.0864 16.2729 76.9741 15.6722C76.8618 15.0714 76.6571 14.5031 76.3576 13.9696C76.0605 13.4362 75.6836 12.9625 75.2293 12.5512C74.805 12.1773 74.3357 11.8732 73.8215 11.6339C73.3048 11.397 72.7681 11.24 72.2064 11.1602C71.6448 11.078 71.0857 11.0805 70.524 11.1627C69.9649 11.2475 69.4282 11.4095 68.914 11.6488C68.6295 11.7884 68.3599 11.9505 68.1053 12.1349C67.8482 12.3219 67.6085 12.5263 67.3864 12.7506C67.1667 12.9775 66.9645 13.2193 66.7848 13.4785C66.6026 13.7353 66.4453 14.0095 66.3105 14.2937C66.1757 14.5803 66.0634 14.8745 65.9785 15.1786C65.8937 15.4802 65.8338 15.7893 65.8013 16.1034C65.7664 16.4175 65.7589 16.7316 65.7788 17.0482C65.7988 17.3623 65.8437 17.6739 65.9161 17.9805C65.9885 18.2871 66.0834 18.5863 66.2057 18.8779C66.328 19.1696 66.4753 19.4488 66.6425 19.7155C66.8122 19.9822 67.002 20.2315 67.2141 20.4658C67.4263 20.7026 67.6559 20.917 67.9031 21.1139C68.1502 21.3109 68.4123 21.4854 68.6894 21.6374C68.9664 21.7895 69.2535 21.9191 69.553 22.0238C69.8501 22.1285 70.1571 22.2058 70.4691 22.2606C70.7811 22.313 71.0957 22.3404 71.4102 22.3404C72.4436 22.3578 73.3921 22.0886 74.2583 21.5277C74.765 21.2186 75.3042 20.9893 75.8084 20.7126" stroke="#5A5A5A" stroke-width="3.68649" stroke-linecap="round" stroke-linejoin="round"/>
<path d="M57.8235 19.4039C58.0531 18.8978 58.2304 18.3619 58.4999 17.8808C58.6347 17.6465 58.7546 17.4047 58.8619 17.1554C58.9692 16.9086 59.0641 16.6543 59.144 16.3951C59.2238 16.1383 59.2887 15.8766 59.3411 15.6099C59.3936 15.3456 59.431 15.0764 59.4535 14.8072C59.4759 14.538 59.4834 14.2687 59.4784 13.9995C59.4709 13.7278 59.451 13.4586 59.416 13.1919C59.3811 12.9226 59.3312 12.6584 59.2663 12.3942C59.2039 12.1324 59.1265 11.8732 59.0341 11.6189C58.9418 11.3646 58.8369 11.1154 58.7196 10.8711C58.5998 10.6293 58.47 10.3924 58.3252 10.1631C58.1804 9.93377 58.0257 9.71441 57.8584 9.50252C57.6887 9.28814 57.5115 9.08622 57.3218 8.89428C57.132 8.69984 56.9324 8.51787 56.7227 8.34587C56.513 8.17386 56.2958 8.01432 56.0687 7.86476C55.8415 7.71768 55.6094 7.58058 55.3673 7.45843C55.1251 7.33379 54.878 7.22411 54.6259 7.12689C54.3713 7.02967 54.1142 6.94741 53.8521 6.87761C53.59 6.80782 53.3254 6.75297 53.0583 6.71309C52.7887 6.6732 52.5191 6.64578 52.2496 6.63332C51.9775 6.62086 51.7079 6.62335 51.4358 6.6408C51.1662 6.65825 50.8966 6.69065 50.6296 6.73552C50.3625 6.78289 50.0979 6.84271 49.8383 6.915C49.5787 6.98979 49.3216 7.07953 49.0695 7.17924C48.8198 7.28145 48.5752 7.39611 48.3356 7.52325C48.0959 7.65287 47.8638 7.79247 47.6416 7.94453C47.417 8.09908 47.2023 8.2636 46.9976 8.4381C46.7905 8.61509 46.5958 8.79955 46.4085 8.99648C46.2238 9.19342 46.0491 9.40032 45.8844 9.6147C45.7196 9.83157 45.5698 10.0559 45.4301 10.2877C45.2903 10.5196 45.163 10.7564 45.0506 11.0032C44.9358 11.2475 44.836 11.4992 44.7486 11.756C44.6612 12.0103 44.5888 12.272 44.5289 12.5338C44.3492 13.3165 44.2968 14.1092 44.3767 14.9069C44.4541 15.7071 44.6587 16.4724 44.9882 17.2052C44.9882 17.2476 45.0681 17.2701 45.0856 17.3025C45.802 19.8102 47.8513 20.8198 50.0629 21.4704C50.6196 21.6274 51.1887 21.7172 51.7678 21.7396C52.3444 21.7621 52.9185 21.7172 53.4852 21.6025C54.0543 21.4879 54.6009 21.3109 55.1251 21.0666C55.6493 20.8223 56.1386 20.5207 56.5904 20.1592C56.9224 19.8426 57.3068 19.6232 57.7511 19.5011" stroke="#5A5A5A" stroke-width="3.68649" stroke-linecap="round" stroke-linejoin="round"/>
<path d="M32.6722 22.3578C33.5384 22.3504 34.3571 22.1559 35.1309 21.7696C35.9047 21.3857 36.5537 20.8522 37.0804 20.1667C37.4474 19.7479 37.7419 19.2842 37.9616 18.7707C38.1812 18.2597 38.3185 17.7262 38.3685 17.1704C38.4184 16.617 38.3809 16.066 38.2586 15.5251C38.1338 14.9817 37.9291 14.4707 37.6421 13.992C37.3875 13.476 37.058 13.0124 36.6511 12.6061C36.2442 12.1972 35.7849 11.8632 35.2682 11.6064C34.7515 11.3472 34.2098 11.1777 33.6382 11.0979C33.0666 11.0181 32.4975 11.0306 31.9309 11.1353C31.7062 11.1652 31.484 11.2076 31.2644 11.2624C31.0447 11.3198 30.83 11.3896 30.6179 11.4693C30.4057 11.5516 30.201 11.6463 30.0013 11.7535C29.8016 11.8607 29.6069 11.9779 29.4222 12.1075C29.2375 12.2371 29.0603 12.3767 28.8905 12.5288C28.7208 12.6783 28.5635 12.8404 28.4138 13.0099C28.264 13.1794 28.1267 13.3589 27.9969 13.5458C27.8696 13.7303 27.7523 13.9247 27.6499 14.1267C27.5451 14.3261 27.4527 14.533 27.3729 14.7449C27.293 14.9543 27.2256 15.1711 27.1732 15.3905C27.1183 15.6099 27.0783 15.8317 27.0509 16.0561C27.0234 16.2804 27.0109 16.5073 27.0109 16.7316C27.0109 16.9585 27.0259 17.1828 27.0534 17.4072C27.0808 17.6315 27.1208 17.8534 27.1757 18.0727C27.2306 18.2921 27.2955 18.509 27.3779 18.7209C27.4577 18.9328 27.5501 19.1372 27.6549 19.3391C28.1217 20.2041 28.7732 20.8946 29.6119 21.4131C30.4157 21.9839 31.3118 22.2556 32.2978 22.2257C32.3951 22.2457 32.49 22.2756 32.5824 22.3155" stroke="#5A5A5A" stroke-width="3.68649" stroke-linecap="round" stroke-linejoin="round"/>
<path d="M45.877 19.3042C44.0073 20.7774 42.0404 22.1036 40.5976 24.0579C39.7065 25.2445 39.0275 26.5408 38.5582 27.9467C38.0914 29.3526 37.8543 30.7959 37.8543 32.2767C37.8069 36.8584 37.8543 41.4302 37.8543 46.0119" stroke="#5A5A5A" stroke-width="3.68649" stroke-linecap="round" stroke-linejoin="round"/>
<path d="M57.9208 19.5011C59.104 20.7126 60.6067 21.5601 61.7574 22.829C62.364 23.4746 62.9032 24.1726 63.3774 24.9229C63.8492 25.6732 64.2461 26.461 64.5656 27.2886C64.8851 28.1137 65.1223 28.9637 65.277 29.8362C65.4318 30.7062 65.5017 31.5861 65.4867 32.4711C65.4867 35.2306 65.4867 37.9976 65.4867 40.7646V46.1989" stroke="#5A5A5A" stroke-width="3.68649" stroke-linecap="round" stroke-linejoin="round"/>
<path d="M27.9894 20.6403C26.5017 21.6574 25.1937 22.8689 24.063 24.2698C23.4289 25.1572 22.9472 26.1244 22.6177 27.1639C22.2882 28.2059 22.1284 29.2728 22.1384 30.3647C22.1384 33.4159 22.1384 36.467 22.1384 39.5182" stroke="#5A5A5A" stroke-width="3.68649" stroke-linecap="round" stroke-linejoin="round"/>
</svg>
